<?xml version="1.0" standalone="no"?>
<!DOCTYPE svg PUBLIC "-//W3C//DTD SVG 20010904//EN"
 "http://www.w3.org/TR/2001/REC-SVG-20010904/DTD/svg10.dtd">
<svg version="1.0" xmlns="http://www.w3.org/2000/svg"
 width="589.000000pt" height="423.000000pt" viewBox="0 0 589.000000 423.000000"
 preserveAspectRatio="xMidYMid meet">

<g transform="translate(0.000000,423.000000) scale(0.100000,-0.100000)"
fill="#000000" stroke="none">
<path d="M3600 2896 l-65 -23 -3 -46 c-3 -41 -6 -47 -34 -56 -17 -6 -33 -11
-34 -11 -2 0 -4 18 -4 40 0 35 -3 40 -22 39 -13 0 -43 -8 -68 -17 -42 -17 -45
-20 -42 -52 3 -43 -5 -56 -41 -65 -27 -7 -31 -3 -28 35 0 8 -3 21 -8 29 -8 12
-17 11 -63 -5 -52 -19 -53 -20 -56 -61 -3 -36 -7 -43 -33 -52 -27 -9 -29 -8
-30 15 -3 57 -7 60 -67 40 -56 -19 -62 -28 -62 -94 0 -71 -11 -122 -26 -122
-17 0 -29 -19 -18 -30 5 -5 91 13 199 41 105 28 283 74 396 104 l206 54 309
-99 c170 -55 312 -100 317 -100 15 0 6 29 -12 35 -14 4 -20 19 -25 67 -3 33
-6 76 -6 93 0 29 -5 35 -40 49 -22 9 -43 16 -45 16 -3 0 -5 -16 -5 -35 0 -35
-5 -40 -34 -29 -11 4 -16 19 -16 46 0 35 -3 40 -35 54 -49 20 -55 18 -55 -21
0 -37 -9 -42 -41 -25 -14 8 -19 21 -19 50 0 41 -15 55 -77 74 -21 7 -23 4 -23
-34 0 -39 -2 -42 -22 -36 -13 3 -26 6 -30 6 -5 0 -8 20 -8 44 0 51 -6 57 -80
85 -66 25 -68 25 -150 -3z"/>
<path d="M3307 2525 c-203 -51 -371 -95 -373 -98 -7 -6 -45 -499 -40 -504 3
-3 237 24 678 78 l96 12 6 66 c3 36 9 147 13 246 l7 180 7 -105 c4 -58 8 -152
9 -210 4 -139 9 -180 25 -180 14 0 25 22 25 51 0 13 7 19 21 19 20 0 21 -4 15
-46 -3 -25 -18 -73 -32 -107 -15 -34 -29 -81 -31 -104 -5 -44 -23 -60 -23 -21
0 20 -4 18 -39 -16 -29 -28 -41 -49 -43 -74 -4 -42 -28 -57 -28 -17 0 15 -3
25 -7 23 -5 -2 -34 -18 -65 -36 -52 -30 -58 -37 -58 -67 0 -21 -6 -35 -16 -39
-23 -9 -24 -8 -24 25 0 24 -3 30 -16 25 -9 -3 -49 -16 -90 -29 l-74 -22 0 -36
c0 -24 -5 -39 -16 -43 -32 -12 -43 -6 -46 27 l-3 33 -107 -25 -108 -24 0 -39
c0 -24 -5 -38 -12 -38 -7 0 -23 -3 -35 -6 -21 -6 -23 -3 -23 31 0 33 -2 37
-22 32 -13 -3 -59 -11 -103 -18 -101 -15 -113 -22 -117 -61 -3 -27 -8 -33 -35
-39 -32 -6 -33 -5 -33 26 0 17 -2 34 -5 37 -5 4 -41 -1 -202 -27 -30 -5 -33
-9 -33 -41 0 -36 -7 -42 -50 -46 -22 -3 -26 2 -30 33 l-5 35 -110 -21 -110
-21 -5 -39 c-4 -35 -9 -40 -32 -43 -26 -3 -28 -1 -28 33 0 40 13 40 -125 2
l-80 -23 -3 -42 c-3 -35 -8 -45 -28 -52 -35 -14 -34 -14 -34 25 0 38 -14 44
-53 24 -44 -23 -77 -62 -77 -92 0 -38 31 -88 75 -122 l35 -26 33 19 c48 29
196 86 329 126 185 56 305 77 498 86 193 9 300 29 565 105 262 76 367 120 481
201 134 95 224 256 224 399 l0 35 60 0 60 0 0 113 c0 120 12 162 45 162 33 0
45 -42 45 -162 l0 -113 70 0 70 0 0 -59 c0 -33 5 -63 10 -66 6 -3 9 -23 9 -43
-1 -23 -3 -29 -6 -14 -2 12 -9 22 -14 22 -14 0 -60 -98 -49 -105 13 -8 13 -72
0 -80 -6 -4 -10 7 -10 25 0 18 -4 30 -9 28 -16 -6 -111 -127 -103 -132 11 -6
2 -76 -9 -76 -5 0 -9 14 -9 30 0 38 -10 38 -65 -5 -25 -19 -52 -38 -60 -42 -7
-5 -15 -28 -17 -52 -4 -55 -28 -69 -28 -17 0 20 -1 36 -3 36 -1 0 -38 -16 -82
-35 l-80 -34 -5 -43 c-6 -55 -34 -60 -38 -7 l-3 35 -94 -24 -94 -25 -3 -41
c-2 -34 -7 -42 -25 -44 -21 -3 -23 1 -23 38 0 35 -3 41 -17 36 -10 -2 -54 -10
-98 -17 -44 -6 -84 -16 -90 -21 -5 -5 -10 -23 -10 -41 0 -26 -5 -33 -22 -35
-20 -3 -23 1 -23 32 l0 36 -47 -1 c-27 -1 -77 -4 -113 -8 l-65 -6 -5 -45 c-4
-40 -8 -45 -32 -48 -27 -3 -28 -2 -28 43 l0 46 -42 -5 c-24 -3 -78 -8 -120
-11 l-77 -7 -3 -41 c-3 -37 -6 -42 -30 -45 -27 -3 -28 -1 -28 39 l0 42 -69 -6
c-117 -10 -176 -47 -135 -87 10 -9 78 -55 149 -100 l130 -83 125 12 c560 53
998 165 1194 305 78 56 196 180 236 248 56 98 70 163 70 330 l0 150 46 -7 c26
-3 53 -9 62 -12 17 -7 16 16 -10 355 -10 141 -13 155 -32 163 -45 18 -574 179
-587 178 -8 0 -180 -43 -382 -94z m553 -264 c16 -31 13 -141 -4 -141 -40 0
-46 11 -46 79 0 37 3 71 7 74 12 13 32 7 43 -12z m-342 -3 c14 -14 17 -148 3
-148 -5 0 -23 -3 -40 -6 l-31 -6 0 79 c0 44 3 83 7 86 11 11 48 8 61 -5z
m-218 -112 l0 -74 -35 -4 -35 -4 0 78 c0 62 3 79 17 87 11 6 24 6 35 0 15 -8
18 -23 18 -83z m828 62 c15 -15 16 -124 2 -133 -6 -3 -19 -3 -30 0 -34 11 -25
145 10 145 3 0 11 -5 18 -12z m-1046 -25 c16 -19 25 -128 11 -136 -5 -3 -23
-8 -40 -12 l-33 -7 0 70 c0 51 4 75 16 86 20 20 27 20 46 -1z m1166 -70 c3
-68 2 -71 -18 -66 -17 5 -20 13 -20 67 0 35 3 66 7 70 18 17 28 -7 31 -71z"/>
<path d="M3285 1940 c-220 -27 -410 -49 -422 -49 -18 -1 -23 -7 -23 -27 0 -24
2 -25 38 -20 20 3 204 22 407 41 447 42 432 40 440 66 4 11 5 22 3 24 -15 13
-93 7 -443 -35z"/>
<path d="M4253 1893 c-9 -22 7 -31 69 -41 60 -9 68 -8 68 15 0 28 -127 52
-137 26z"/>
<path d="M3410 1869 c-146 -14 -324 -32 -397 -39 l-131 -12 -7 -97 c-3 -53 -8
-113 -12 -135 l-5 -38 53 7 c256 32 533 132 683 245 48 36 94 87 84 94 -2 1
-122 -10 -268 -25z"/>
<path d="M4263 1643 c4 -103 10 -324 13 -490 l7 -303 69 0 69 0 -5 53 c-4 28
-15 169 -26 312 -39 498 -47 595 -51 599 -2 2 -22 7 -43 10 l-39 7 6 -188z"/>
<path d="M4193 1503 c-6 -17 -28 -57 -48 -88 -189 -296 -662 -500 -1250 -540
-49 -3 -114 -8 -142 -11 l-53 -5 78 -61 c42 -34 138 -122 212 -197 124 -126
172 -183 289 -344 l42 -57 143 0 c121 0 159 4 240 25 246 64 418 177 492 323
l29 57 -3 310 c-2 171 -6 380 -10 465 -6 135 -9 151 -19 123z"/>
<path d="M1483 1073 c-4 -21 -8 -69 -7 -108 1 -116 31 -168 178 -307 163 -155
219 -239 289 -440 8 -22 55 -24 63 -3 10 24 -14 236 -36 321 -11 43 -35 103
-53 132 -46 76 -152 188 -279 294 -60 50 -116 104 -124 120 -8 15 -16 28 -19
28 -2 0 -8 -17 -12 -37z"/>
<path d="M2240 1007 c0 -36 -5 -68 -12 -75 -16 -16 -13 -19 202 -192 96 -78
286 -231 422 -341 250 -201 298 -230 298 -179 0 11 7 23 15 26 16 7 -24 71
-112 178 -65 80 -73 81 -73 10 l0 -57 -25 23 c-23 22 -24 28 -19 90 l6 66 -98
87 c-54 48 -102 87 -106 87 -4 0 -8 -20 -8 -45 0 -25 -2 -45 -5 -45 -3 0 -19
10 -35 22 -27 20 -30 27 -30 77 l0 56 -113 73 c-62 39 -116 72 -120 72 -4 0
-7 -18 -7 -40 0 -44 -5 -47 -38 -24 -17 12 -22 25 -22 63 0 45 -2 49 -47 82
-77 56 -73 57 -73 -14z"/>
<path d="M1474 489 l1 -284 213 -3 c175 -2 213 0 218 12 8 22 -48 155 -95 224
-53 79 -133 159 -209 211 -33 22 -75 59 -95 82 l-35 43 2 -285z"/>
</g>
</svg>
