<?xml version="1.0" standalone="no"?>
<!DOCTYPE svg PUBLIC "-//W3C//DTD SVG 20010904//EN"
 "http://www.w3.org/TR/2001/REC-SVG-20010904/DTD/svg10.dtd">
<svg version="1.0" xmlns="http://www.w3.org/2000/svg"
 width="662.000000pt" height="377.000000pt" viewBox="0 0 662.000000 377.000000"
 preserveAspectRatio="xMidYMid meet">

<g transform="translate(0.000000,377.000000) scale(0.100000,-0.100000)"
fill="#000000" stroke="none">
<path d="M2605 3207 c-133 -13 -242 -49 -412 -134 -62 -31 -113 -60 -113 -64
0 -5 -6 -9 -12 -9 -25 -1 -162 -116 -194 -162 -50 -70 -64 -142 -64 -317 0
-83 3 -151 6 -151 7 0 113 58 129 70 27 20 356 157 393 163 9 1 55 15 102 29
100 31 301 75 382 83 52 6 59 9 65 33 8 34 -34 337 -52 371 -22 43 -68 79
-110 88 -22 5 -76 5 -120 0z"/>
<path d="M2780 2658 c-328 -54 -697 -186 -927 -331 l-43 -27 0 -183 c0 -100
-3 -199 -6 -219 -6 -34 -4 -38 15 -38 12 0 48 7 81 17 l59 16 0 121 c0 117 11
183 30 172 14 -9 32 -94 38 -184 4 -59 10 -85 20 -89 8 -3 39 0 68 6 l53 12
-4 132 c-6 155 8 230 44 235 17 3 23 -4 32 -39 19 -71 30 -151 30 -227 l0 -73
83 7 c45 3 83 8 85 9 1 1 4 74 6 161 3 149 13 219 36 254 29 46 93 -124 110
-293 5 -49 11 -91 14 -94 2 -3 39 -2 81 2 l77 8 -9 91 c-18 203 -2 386 35 386
13 0 52 -35 52 -47 0 -5 9 -27 19 -49 23 -47 71 -229 72 -271 0 -15 6 -44 12
-63 10 -28 17 -35 37 -34 14 1 62 2 108 3 117 1 117 -14 -2 232 -31 63 -56
118 -56 122 0 3 -20 48 -44 99 -24 51 -53 114 -64 141 -23 53 -29 54 -142 35z"/>
<path d="M3175 2368 c4 -18 18 -54 31 -80 13 -26 24 -52 24 -57 0 -6 12 -36
27 -68 15 -32 27 -60 28 -63 0 -3 4 -17 8 -31 l7 -27 222 -6 c443 -12 811 -40
1090 -82 53 -7 104 -14 113 -14 20 0 19 30 -5 115 -11 39 -25 97 -30 129 -14
87 -52 156 -104 189 l-43 27 -687 0 -688 0 7 -32z"/>
<path d="M3050 1980 c-58 -5 -179 -13 -270 -19 -91 -6 -190 -15 -220 -20 -30
-5 -98 -14 -150 -21 -129 -15 -337 -54 -499 -93 -111 -27 -136 -36 -151 -57
-37 -51 -52 -138 -57 -327 l-5 -183 23 0 c13 0 53 8 89 18 l65 19 6 129 c6
127 13 164 30 164 11 0 16 -27 24 -115 13 -157 12 -155 55 -155 22 0 50 4 65
10 l25 10 -1 150 c0 123 2 156 15 176 9 13 20 24 25 24 22 0 44 -79 54 -201
l11 -129 31 1 c16 0 52 4 79 7 l50 7 1 165 c0 131 4 173 18 203 14 33 19 37
35 28 22 -12 69 -184 79 -288 8 -90 12 -93 106 -81 l78 11 -5 36 c-3 20 -6 74
-7 121 -3 162 1 216 16 236 15 18 16 18 40 -11 13 -16 29 -52 36 -80 6 -27 16
-58 20 -67 5 -9 19 -63 30 -120 11 -57 22 -104 24 -106 2 -2 37 -1 78 3 l74 7
-5 106 c-6 139 12 262 43 297 31 33 50 32 85 -7 25 -28 90 -144 90 -162 0 -4
11 -32 25 -62 14 -30 25 -61 25 -69 0 -8 7 -33 16 -55 l16 -40 68 0 c37 0 81
3 97 6 l30 6 -14 40 c-7 22 -47 110 -89 196 -155 324 -143 302 -172 300 -15 0
-74 -4 -132 -8z"/>
<path d="M3340 1972 c0 -12 11 -45 23 -74 13 -29 29 -66 34 -83 50 -141 142
-356 158 -368 6 -4 39 -6 75 -5 l65 3 -3 35 c-2 19 -10 67 -18 107 -27 137
-11 273 33 273 31 0 71 -41 100 -102 30 -62 77 -217 88 -290 l6 -36 72 -4 c40
-2 76 -1 81 3 5 4 3 22 -3 41 -7 18 -19 88 -27 156 -17 149 -13 192 22 192 22
0 64 -49 86 -100 11 -25 28 -63 38 -85 10 -22 32 -80 49 -130 l30 -90 58 -7
c31 -4 60 -4 64 0 4 4 -2 41 -13 82 -27 104 -31 298 -6 314 15 9 23 5 46 -23
39 -47 101 -192 149 -346 l19 -60 74 -6 c41 -4 102 -12 134 -18 118 -22 118
-22 87 92 -11 40 -31 126 -46 192 -46 207 -57 244 -74 249 -9 3 -54 10 -101
16 -47 6 -116 15 -155 20 -292 39 -573 59 -907 67 -238 6 -238 6 -238 -15z"/>
<path d="M3125 1389 c-104 -4 -247 -13 -317 -19 -69 -7 -130 -10 -135 -8 -4 3
-48 0 -98 -7 -49 -6 -148 -19 -220 -29 -144 -19 -356 -55 -510 -87 -55 -12
-110 -23 -122 -25 -23 -4 -23 -7 -23 -145 0 -120 3 -147 21 -189 24 -57 75
-90 138 -90 l39 0 -1 103 c-1 103 8 177 21 177 12 0 33 -101 39 -192 l6 -88
63 0 63 0 0 130 c-1 150 11 203 44 198 31 -4 45 -68 46 -210 l1 -118 88 0 87
0 0 133 c0 184 26 280 63 235 19 -24 53 -153 63 -238 15 -141 7 -130 103 -130
l83 0 -5 170 c-3 120 -1 183 8 215 21 75 36 59 85 -86 19 -57 35 -113 35 -126
0 -12 7 -56 17 -98 l16 -75 81 0 81 0 0 207 c0 202 1 209 24 251 41 70 78 54
140 -61 17 -31 31 -62 31 -67 0 -5 11 -33 24 -62 13 -29 37 -93 53 -143 l30
-90 74 -7 c41 -4 77 -3 81 0 8 8 1 56 -31 202 -26 119 -28 205 -6 192 25 -13
118 -144 208 -289 l82 -133 72 0 c80 0 82 3 39 65 -29 41 -64 105 -77 138 -6
15 -15 27 -19 27 -5 0 -12 9 -15 20 -3 11 -42 79 -86 151 -43 72 -79 134 -79
137 0 3 -10 21 -22 39 l-23 33 -85 -2 c-47 0 -170 -5 -275 -9z"/>
<path d="M3587 1382 c4 -9 28 -51 53 -92 25 -41 49 -82 53 -90 9 -17 32 -55
100 -165 26 -43 47 -80 47 -82 0 -2 11 -19 25 -37 14 -18 25 -36 25 -40 0 -3
12 -24 26 -46 26 -39 29 -40 81 -40 53 0 55 1 49 23 -3 12 -11 51 -16 87 -5
36 -14 92 -20 125 -14 82 -12 175 3 205 21 41 59 38 89 -7 47 -68 96 -205 123
-343 17 -88 14 -85 98 -88 l76 -3 -5 38 c-3 21 -12 65 -19 98 -60 261 -21 389
70 233 19 -32 38 -71 42 -86 3 -15 17 -51 30 -80 13 -29 23 -60 23 -69 0 -10
10 -43 22 -75 l23 -58 57 0 58 0 -6 48 c-3 26 -12 85 -20 131 -18 107 -18 163
0 206 18 42 29 43 62 8 28 -31 98 -172 108 -220 4 -18 16 -50 27 -72 10 -22
19 -49 19 -60 0 -33 19 -34 50 -3 52 52 52 51 -22 357 -11 44 -24 85 -29 91
-10 12 -51 20 -189 34 -47 5 -131 16 -187 24 -94 14 -542 47 -820 60 -103 5
-112 4 -106 -12z"/>
</g>
</svg>
