<?xml version="1.0" standalone="no"?>
<!DOCTYPE svg PUBLIC "-//W3C//DTD SVG 20010904//EN"
 "http://www.w3.org/TR/2001/REC-SVG-20010904/DTD/svg10.dtd">
<svg version="1.0" xmlns="http://www.w3.org/2000/svg"
 width="404.000000pt" height="255.000000pt" viewBox="0 0 404.000000 255.000000"
 preserveAspectRatio="xMidYMid meet">

<g transform="translate(0.000000,255.000000) scale(0.100000,-0.100000)"
fill="#000000" stroke="none">
<path d="M1750 2045 c0 -42 3 -55 15 -55 12 0 15 -14 15 -65 l0 -65 -74 0 -74
0 -21 -49 c-11 -27 -21 -52 -21 -55 0 -3 43 -6 96 -6 93 0 95 -1 92 -22 -3
-23 -6 -23 -155 -26 l-153 -3 -14 -33 c-35 -83 -48 -76 134 -76 l161 0 -3 -27
-3 -28 -221 -3 -220 -2 -21 -50 -21 -50 228 0 c126 0 231 -4 234 -8 3 -5 2
-18 -1 -30 -5 -22 -6 -22 -293 -22 l-288 0 -17 -42 c-9 -24 -19 -49 -22 -55
-4 -10 59 -13 296 -13 l301 0 0 -25 0 -25 -359 0 -359 0 -17 -42 c-9 -24 -19
-49 -22 -55 -4 -10 73 -13 365 -13 l369 0 -5 -25 -4 -25 -424 0 -424 0 -14
-33 c-7 -19 -17 -43 -20 -55 l-7 -22 435 0 c462 0 447 2 430 -44 -5 -14 -59
-16 -498 -16 l-492 0 -21 -50 -21 -50 504 0 504 0 0 -30 0 -30 -564 0 -564 0
-17 -42 c-9 -24 -19 -49 -22 -55 -4 -10 114 -13 572 -13 522 0 577 -2 571 -16
-3 -9 -6 -20 -6 -25 0 -5 -254 -9 -629 -9 l-629 0 -21 -49 c-11 -27 -21 -52
-21 -55 0 -3 288 -6 640 -6 l640 0 0 -25 c0 -22 4 -25 38 -25 l37 0 91 727 90
728 27 3 c15 2 27 1 27 -3 0 -3 -40 -330 -90 -725 -49 -395 -90 -722 -90 -725
0 -3 144 -5 320 -5 176 0 320 2 320 5 0 3 -40 330 -90 725 -49 395 -90 722
-90 725 0 14 49 3 53 -12 3 -10 45 -339 94 -730 l88 -713 37 0 c34 0 38 3 38
25 l0 25 640 0 c352 0 640 3 640 6 0 3 -10 28 -21 55 l-21 49 -629 0 c-375 0
-629 4 -629 9 0 5 -3 16 -6 25 -6 14 49 16 571 16 458 0 576 3 572 12 -3 7
-13 32 -22 56 l-17 42 -564 0 -564 0 0 30 0 30 500 0 c275 0 500 3 500 7 0 4
-7 27 -16 50 l-17 43 -492 0 c-440 0 -494 2 -499 16 -17 46 -32 44 430 44
l435 0 -7 22 c-3 12 -13 36 -20 55 l-14 33 -425 0 c-251 0 -425 4 -425 9 0 5
-3 16 -6 25 -6 14 31 16 365 16 204 0 371 3 371 6 0 3 -10 28 -21 55 l-21 49
-359 0 -359 0 0 25 0 25 301 0 c237 0 300 3 296 13 -3 6 -13 31 -22 55 l-17
42 -288 0 c-287 0 -288 0 -293 22 -3 12 -4 25 -1 30 3 4 108 8 234 8 l228 0
-21 50 -21 50 -220 2 -221 3 -3 28 -3 27 161 0 c182 0 169 -7 134 76 l-14 33
-153 3 c-149 3 -152 3 -155 26 -3 21 -1 22 92 22 53 0 96 3 96 6 0 3 -10 28
-21 55 l-21 49 -74 0 -74 0 0 65 c0 51 3 65 15 65 12 0 15 13 15 55 l0 55
-270 0 -270 0 0 -55z m320 -130 l0 -55 -50 0 -50 0 0 55 0 55 50 0 50 0 0 -55z"/>
</g>
</svg>
