<?xml version="1.0" standalone="no"?>
<!DOCTYPE svg PUBLIC "-//W3C//DTD SVG 20010904//EN"
 "http://www.w3.org/TR/2001/REC-SVG-20010904/DTD/svg10.dtd">
<svg version="1.0" xmlns="http://www.w3.org/2000/svg"
 width="330.000000pt" height="248.000000pt" viewBox="0 0 330.000000 248.000000"
 preserveAspectRatio="xMidYMid meet">

<g transform="translate(0.000000,248.000000) scale(0.100000,-0.100000)"
fill="#000000" stroke="none">
<path d="M1647 2344 c-4 -4 -7 -49 -7 -99 l0 -92 -27 -6 c-16 -3 -44 -19 -63
-36 l-35 -30 145 -1 144 0 -34 30 c-19 17 -47 33 -62 36 -27 6 -27 7 -30 102
-3 88 -12 115 -31 96z"/>
<path d="M1434 2021 c-82 -53 -140 -115 -176 -188 -26 -54 -31 -73 -30 -140 0
-43 7 -96 15 -118 l14 -40 400 -3 400 -2 14 32 c9 20 14 70 14 128 0 79 -4
103 -23 142 -33 66 -100 138 -175 187 l-63 41 -166 0 -165 0 -59 -39z m96
-472 c0 -5 -13 -9 -30 -9 -33 0 -39 14 -13 29 18 10 43 -2 43 -20z m80 -7
c-40 -4 -51 5 -26 24 17 12 22 12 39 -4 19 -17 19 -17 -13 -20z m130 8 c0 -6
-16 -10 -35 -10 -38 0 -46 13 -18 29 19 10 53 -2 53 -19z m100 0 c0 -6 -16
-10 -37 -10 -35 0 -36 0 -18 20 13 15 22 17 36 9 11 -5 19 -14 19 -19z m-526
14 c26 -10 18 -24 -14 -24 -30 0 -41 14 -17 23 6 3 13 6 14 6 1 1 8 -2 17 -5z
m114 -11 c2 -9 -7 -13 -27 -13 -30 0 -39 9 -24 24 11 10 46 3 51 -11z m510 0
c2 -9 -7 -13 -27 -13 -30 0 -39 9 -24 24 11 10 46 3 51 -11z m86 11 c26 -10
18 -24 -14 -24 -30 0 -41 14 -17 23 6 3 13 6 14 6 1 1 8 -2 17 -5z"/>
<path d="M240 1967 c0 -24 -8 -41 -30 -62 -16 -16 -30 -39 -30 -52 0 -22 4
-23 70 -23 66 0 70 1 70 23 0 13 -13 36 -30 52 -22 21 -30 38 -30 62 0 18 -4
33 -10 33 -5 0 -10 -15 -10 -33z"/>
<path d="M3060 1967 c0 -24 -8 -41 -30 -62 -16 -16 -30 -39 -30 -52 0 -22 4
-23 70 -23 66 0 70 1 70 23 0 13 -13 36 -30 52 -22 21 -30 38 -30 62 0 18 -4
33 -10 33 -5 0 -10 -15 -10 -33z"/>
<path d="M130 1795 c0 -12 20 -15 120 -15 100 0 120 3 120 15 0 13 -20 15
-120 15 -100 0 -120 -2 -120 -15z"/>
<path d="M2950 1795 c0 -12 20 -15 120 -15 100 0 120 3 120 15 0 13 -20 15
-120 15 -100 0 -120 -2 -120 -15z"/>
<path d="M170 1710 c0 -43 -3 -50 -20 -50 -11 0 -20 -7 -20 -15 0 -12 20 -15
120 -15 100 0 120 3 120 15 0 9 -9 15 -25 15 -23 0 -25 3 -25 50 0 28 -4 50
-10 50 -5 0 -10 -22 -10 -50 0 -27 -4 -50 -10 -50 -5 0 -10 23 -10 50 0 28 -4
50 -10 50 -5 0 -10 -22 -10 -50 0 -27 -4 -50 -10 -50 -5 0 -10 23 -10 50 0 28
-4 50 -10 50 -5 0 -10 -22 -10 -50 0 -27 -4 -50 -10 -50 -5 0 -10 23 -10 50 0
38 -4 50 -15 50 -11 0 -15 -12 -15 -50z"/>
<path d="M3000 1710 c0 -47 -2 -50 -25 -50 -16 0 -25 -6 -25 -15 0 -12 20 -15
120 -15 100 0 120 3 120 15 0 8 -9 15 -20 15 -17 0 -20 7 -20 50 0 38 -4 50
-15 50 -11 0 -15 -12 -15 -50 0 -27 -4 -50 -10 -50 -5 0 -10 23 -10 50 0 28
-4 50 -10 50 -5 0 -10 -22 -10 -50 0 -27 -4 -50 -10 -50 -5 0 -10 23 -10 50 0
28 -4 50 -10 50 -5 0 -10 -22 -10 -50 0 -27 -4 -50 -10 -50 -5 0 -10 23 -10
50 0 28 -4 50 -10 50 -5 0 -10 -22 -10 -50z"/>
<path d="M177 1458 c-4 -83 -7 -173 -7 -200 l0 -48 82 0 81 0 -6 128 c-4 70
-7 160 -7 200 l0 72 -68 0 -69 0 -6 -152z"/>
<path d="M3000 1538 c0 -40 -3 -130 -7 -200 l-6 -128 83 0 83 0 -6 152 c-4 83
-7 173 -7 200 l0 48 -70 0 -70 0 0 -72z"/>
<path d="M1260 1495 c0 -18 5 -25 20 -25 15 0 20 7 20 25 0 18 -5 25 -20 25
-15 0 -20 -7 -20 -25z"/>
<path d="M1320 1495 c0 -18 5 -25 20 -25 15 0 20 7 20 25 0 18 -5 25 -20 25
-15 0 -20 -7 -20 -25z"/>
<path d="M1370 1495 c0 -18 5 -25 20 -25 15 0 20 7 20 25 0 18 -5 25 -20 25
-15 0 -20 -7 -20 -25z"/>
<path d="M1430 1495 c0 -16 6 -25 15 -25 9 0 15 9 15 25 0 16 -6 25 -15 25 -9
0 -15 -9 -15 -25z"/>
<path d="M1480 1495 c0 -18 5 -25 20 -25 15 0 20 7 20 25 0 18 -5 25 -20 25
-15 0 -20 -7 -20 -25z"/>
<path d="M1530 1495 c0 -18 5 -25 20 -25 15 0 20 7 20 25 0 18 -5 25 -20 25
-15 0 -20 -7 -20 -25z"/>
<path d="M1590 1495 c0 -16 6 -25 15 -25 9 0 15 9 15 25 0 16 -6 25 -15 25 -9
0 -15 -9 -15 -25z"/>
<path d="M1640 1495 c0 -18 5 -25 20 -25 15 0 20 7 20 25 0 18 -5 25 -20 25
-15 0 -20 -7 -20 -25z"/>
<path d="M1700 1495 c0 -16 6 -25 15 -25 9 0 15 9 15 25 0 16 -6 25 -15 25 -9
0 -15 -9 -15 -25z"/>
<path d="M1750 1495 c0 -18 5 -25 20 -25 15 0 20 7 20 25 0 18 -5 25 -20 25
-15 0 -20 -7 -20 -25z"/>
<path d="M1800 1495 c0 -18 5 -25 20 -25 15 0 20 7 20 25 0 18 -5 25 -20 25
-15 0 -20 -7 -20 -25z"/>
<path d="M1860 1495 c0 -16 6 -25 15 -25 9 0 15 9 15 25 0 16 -6 25 -15 25 -9
0 -15 -9 -15 -25z"/>
<path d="M1910 1495 c0 -18 5 -25 20 -25 15 0 20 7 20 25 0 18 -5 25 -20 25
-15 0 -20 -7 -20 -25z"/>
<path d="M1960 1495 c0 -18 5 -25 20 -25 15 0 20 7 20 25 0 18 -5 25 -20 25
-15 0 -20 -7 -20 -25z"/>
<path d="M2020 1495 c0 -18 5 -25 20 -25 15 0 20 7 20 25 0 18 -5 25 -20 25
-15 0 -20 -7 -20 -25z"/>
<path d="M1028 1435 c-67 -52 -78 -70 -78 -124 l0 -41 150 0 150 0 0 38 c0 20
-9 51 -20 69 -18 30 -114 103 -135 103 -5 0 -36 -20 -67 -45z"/>
<path d="M2162 1444 c-63 -42 -92 -85 -92 -136 l0 -38 150 0 150 0 0 38 c0 20
-6 48 -13 61 -12 25 -114 110 -132 111 -6 0 -34 -16 -63 -36z"/>
<path d="M660 1290 l0 -160 60 0 60 0 0 95 c0 78 -3 95 -15 95 -11 0 -15 -11
-15 -40 0 -39 -1 -40 -35 -40 l-35 0 0 105 c0 63 -4 105 -10 105 -6 0 -10 -60
-10 -160z"/>
<path d="M1262 1433 c3 -17 30 -18 398 -18 368 0 395 1 398 18 3 16 -21 17
-398 17 -377 0 -401 -1 -398 -17z"/>
<path d="M2640 1345 l0 -105 -35 0 c-34 0 -35 1 -35 40 0 29 -4 40 -15 40 -12
0 -15 -17 -15 -95 l0 -95 60 0 60 0 0 160 c0 100 -4 160 -10 160 -6 0 -10 -42
-10 -105z"/>
<path d="M1260 1355 l0 -45 400 0 400 0 0 45 0 45 -400 0 -400 0 0 -45z"/>
<path d="M1260 820 l0 -470 50 0 50 0 0 425 0 425 300 0 300 0 0 -425 0 -425
50 0 50 0 0 470 0 470 -400 0 -400 0 0 -470z"/>
<path d="M950 1190 c0 -53 2 -60 20 -60 17 0 20 7 20 39 0 22 5 43 10 46 19
12 40 -16 40 -51 0 -24 5 -34 15 -34 10 0 15 10 15 34 0 35 21 63 40 51 5 -3
10 -24 10 -46 0 -32 3 -39 20 -39 16 0 20 7 20 33 0 37 15 58 36 50 9 -3 14
-20 14 -44 0 -32 3 -39 20 -39 18 0 20 7 20 60 l0 60 -150 0 -150 0 0 -60z"/>
<path d="M2070 1190 c0 -53 2 -60 20 -60 17 0 20 7 20 39 0 24 5 41 14 44 21
8 36 -13 36 -50 0 -23 5 -33 15 -33 10 0 15 10 15 28 0 16 6 37 14 47 12 16
16 17 30 6 9 -8 16 -28 16 -47 0 -24 5 -34 15 -34 10 0 15 10 15 33 0 37 15
58 36 50 9 -3 14 -20 14 -44 0 -32 3 -39 20 -39 18 0 20 7 20 60 l0 60 -150 0
-150 0 0 -60z"/>
<path d="M140 1175 c0 -12 19 -15 110 -15 91 0 110 3 110 15 0 12 -19 15 -110
15 -91 0 -110 -3 -110 -15z"/>
<path d="M2960 1175 c0 -12 19 -15 110 -15 91 0 110 3 110 15 0 12 -19 15
-110 15 -91 0 -110 -3 -110 -15z"/>
<path d="M1370 765 l0 -415 35 0 35 0 0 218 c0 119 5 234 10 254 16 56 53 93
136 136 l74 39 74 -39 c83 -43 120 -80 136 -136 5 -20 10 -135 10 -254 l0
-218 35 0 35 0 0 415 0 415 -290 0 -290 0 0 -415z"/>
<path d="M166 1128 c-3 -13 -7 -101 -10 -195 l-5 -173 98 0 98 0 -4 143 c-2
78 -6 166 -9 195 l-5 52 -80 0 c-74 0 -79 -1 -83 -22z"/>
<path d="M2986 1098 c-3 -29 -7 -117 -10 -195 l-4 -143 98 0 99 0 -5 183 c-3
100 -7 188 -10 195 -2 8 -28 12 -83 12 l-80 0 -5 -52z"/>
<path d="M660 1075 l0 -35 295 0 295 0 0 35 0 35 -295 0 -295 0 0 -35z"/>
<path d="M2070 1075 l0 -35 295 0 295 0 0 35 0 35 -295 0 -295 0 0 -35z"/>
<path d="M660 860 l0 -170 30 0 30 0 0 91 c0 87 1 92 29 120 37 37 62 37 103
0 32 -28 33 -32 36 -120 l4 -91 29 0 29 0 -2 168 -3 167 -142 3 -143 3 0 -171z"/>
<path d="M960 860 l0 -170 30 0 30 0 0 80 c0 92 14 130 56 149 21 9 34 9 56 0
43 -18 58 -56 58 -149 l0 -80 30 0 30 0 0 170 0 170 -145 0 -145 0 0 -170z"/>
<path d="M2070 860 l0 -170 30 0 30 0 0 80 c0 92 14 130 56 149 21 9 34 9 56
0 43 -18 58 -56 58 -149 l0 -80 30 0 30 0 0 170 0 170 -145 0 -145 0 0 -170z"/>
<path d="M2380 860 l0 -170 24 0 c23 0 24 3 28 91 3 88 4 92 36 120 41 37 66
37 103 0 28 -28 29 -33 29 -120 l0 -91 30 0 30 0 0 170 0 170 -140 0 -140 0 0
-170z"/>
<path d="M1598 733 c-70 -39 -78 -63 -78 -237 l0 -146 140 0 140 0 0 146 c0
174 -7 196 -79 237 -60 33 -64 33 -123 0z"/>
<path d="M130 725 c0 -12 20 -15 120 -15 100 0 120 3 120 15 0 13 -20 15 -120
15 -100 0 -120 -2 -120 -15z"/>
<path d="M2950 725 c0 -12 20 -15 120 -15 100 0 120 3 120 15 0 13 -20 15
-120 15 -100 0 -120 -2 -120 -15z"/>
<path d="M146 608 c-3 -50 -6 -129 -6 -175 l0 -83 110 0 110 0 0 63 c0 34 -3
113 -7 175 l-6 112 -97 0 -97 0 -7 -92z"/>
<path d="M2967 588 c-4 -62 -7 -141 -7 -175 l0 -63 110 0 110 0 0 83 c0 46 -3
125 -6 175 l-7 92 -97 0 -97 0 -6 -112z"/>
<path d="M660 515 l0 -165 30 0 30 0 0 86 c0 81 1 87 29 115 37 37 62 37 103
0 32 -28 33 -33 37 -115 l3 -86 29 0 29 0 -2 163 -3 162 -142 3 -143 3 0 -166z"/>
<path d="M960 515 l0 -165 30 0 30 0 0 75 c0 86 15 125 56 144 21 9 34 9 56 0
42 -17 58 -56 58 -144 l0 -75 30 0 30 0 0 165 0 165 -145 0 -145 0 0 -165z"/>
<path d="M2070 515 l0 -165 30 0 30 0 0 75 c0 86 15 125 56 144 21 9 34 9 56
0 42 -17 58 -56 58 -144 l0 -75 30 0 30 0 0 165 0 165 -145 0 -145 0 0 -165z"/>
<path d="M2380 515 l0 -165 24 0 c23 0 24 3 27 86 4 82 5 87 37 115 41 37 66
37 103 0 28 -28 29 -34 29 -115 l0 -86 30 0 30 0 0 165 0 165 -140 0 -140 0 0
-165z"/>
<path d="M10 225 l0 -105 1645 0 1645 0 0 105 0 105 -1645 0 -1645 0 0 -105z"/>
</g>
</svg>
