<?xml version="1.0" standalone="no"?>
<!DOCTYPE svg PUBLIC "-//W3C//DTD SVG 20010904//EN"
 "http://www.w3.org/TR/2001/REC-SVG-20010904/DTD/svg10.dtd">
<svg version="1.0" xmlns="http://www.w3.org/2000/svg"
 width="500.000000pt" height="500.000000pt" viewBox="0 0 500.000000 500.000000"
 preserveAspectRatio="xMidYMid meet">

<g transform="translate(0.000000,500.000000) scale(0.100000,-0.100000)"
fill="#000000" stroke="none">
<path d="M2403 3592 c-59 -89 -346 -526 -469 -714 -46 -71 -87 -128 -92 -128
-4 0 -36 38 -70 84 l-63 85 -33 -37 c-18 -20 -93 -109 -166 -197 -239 -289
-433 -517 -584 -690 -82 -93 -156 -179 -165 -189 -21 -26 117 50 234 127 217
144 426 340 615 578 l80 101 10 -29 c29 -81 137 -308 147 -308 14 0 117 126
280 343 l115 153 87 -118 c201 -272 455 -530 681 -694 l75 -54 -130 -8 c-293
-17 -580 -89 -975 -244 -322 -127 -517 -184 -679 -199 -39 -4 -71 -10 -71 -13
0 -8 82 -34 185 -60 136 -34 248 -44 420 -38 216 8 301 26 700 151 171 54 337
97 475 123 149 27 484 25 653 -5 194 -35 401 -97 578 -172 39 -17 74 -29 76
-27 5 5 -142 103 -237 158 -41 23 -158 83 -260 131 -514 246 -680 358 -960
644 -193 198 -354 405 -494 637 l-57 93 86 140 c47 76 90 143 94 147 4 4 20
-20 36 -55 81 -185 148 -305 244 -443 382 -550 885 -912 1490 -1070 51 -14 99
-25 107 -25 8 0 -39 67 -103 149 -295 373 -642 829 -1018 1338 -49 67 -92 120
-96 117 -4 -2 -62 -74 -129 -159 -122 -155 -122 -155 -139 -133 -10 13 -96
136 -191 273 -208 299 -219 315 -228 315 -4 0 -30 -35 -59 -78z m831 -519 c54
-191 161 -400 375 -733 l16 -25 -30 19 c-132 83 -385 333 -510 504 l-31 44 75
128 c42 71 78 129 81 129 3 1 14 -29 24 -66z"/>
<path d="M2170 2288 c-71 -53 -333 -221 -448 -287 -100 -58 -355 -182 -465
-226 -222 -90 -361 -130 -602 -171 l-40 -7 75 -19 c41 -10 113 -21 160 -24
358 -27 809 204 1265 648 71 69 128 128 125 131 -3 2 -34 -18 -70 -45z"/>
</g>
</svg>
