<?xml version="1.0" standalone="no"?>
<!DOCTYPE svg PUBLIC "-//W3C//DTD SVG 20010904//EN"
 "http://www.w3.org/TR/2001/REC-SVG-20010904/DTD/svg10.dtd">
<svg version="1.0" xmlns="http://www.w3.org/2000/svg"
 width="500.000000pt" height="500.000000pt" viewBox="0 0 500.000000 500.000000"
 preserveAspectRatio="xMidYMid meet">

<g transform="translate(0.000000,500.000000) scale(0.100000,-0.100000)"
fill="#000000" stroke="none">
<path d="M2235 4274 c-16 -3 -84 -11 -149 -19 -127 -16 -165 -31 -200 -78 -16
-22 -20 -41 -19 -87 2 -78 32 -308 45 -340 5 -13 9 -105 8 -206 0 -116 3 -185
10 -189 5 -3 10 -40 10 -80 0 -73 1 -75 30 -90 l30 -16 0 -368 c0 -203 -3
-376 -6 -385 -5 -13 -27 -16 -135 -16 l-129 0 0 408 c0 396 1 409 20 427 19
18 20 31 20 487 0 304 -4 476 -10 489 -17 31 -56 23 -174 -40 -61 -32 -194
-102 -296 -156 -432 -227 -456 -241 -464 -261 -3 -9 -6 -121 -6 -249 l0 -233
25 -30 25 -30 1 -518 c1 -558 6 -705 27 -712 8 -2 12 -26 12 -71 0 -55 4 -71
20 -86 20 -18 20 -31 20 -545 0 -498 1 -528 18 -543 17 -16 139 -17 1555 -17
1509 0 1536 0 1547 19 6 13 10 200 10 539 0 507 0 520 20 533 19 14 20 30 26
709 5 528 9 697 19 705 31 26 35 56 35 279 0 123 -4 235 -9 248 -9 24 -8 23
-576 313 -159 81 -294 152 -300 156 -16 15 -67 10 -81 -8 -11 -14 -13 -113
-14 -490 l0 -472 25 -19 25 -20 -2 -404 -3 -403 -115 0 -115 0 -3 388 -2 387
24 9 c30 12 36 29 36 106 0 35 5 67 11 70 7 5 10 69 8 189 -1 101 1 188 5 194
9 15 46 295 46 350 0 141 -107 172 -600 177 -151 2 -288 1 -305 -1z m-575
-684 l0 -90 -365 0 -365 0 0 90 0 90 365 0 365 0 0 -90z m2410 0 l0 -90 -380
0 -380 0 0 90 0 90 380 0 380 0 0 -90z m-1082 -52 l-3 -83 -482 -3 -483 -2 0
85 0 85 485 0 486 0 -3 -82z m-1618 -205 c0 -75 8 -101 31 -108 48 -16 10 -25
-101 -25 -90 0 -120 3 -120 13 0 7 9 18 20 25 17 10 20 23 20 75 0 35 3 67 7
70 3 4 37 7 75 7 l68 0 0 -57z m2390 -3 c0 -52 4 -65 25 -86 14 -14 25 -29 25
-34 0 -6 -53 -10 -127 -10 l-128 0 28 25 c24 23 27 32 27 95 l0 70 75 0 75 0
0 -60z m-1150 -54 c0 -59 2 -66 28 -85 l27 -20 -160 0 c-124 0 -156 2 -140 11
31 17 35 28 35 96 l0 62 105 0 105 0 0 -64z m-1540 -466 l0 -410 -45 0 -45 0
0 410 0 410 45 0 45 0 0 -410z m545 0 l0 -405 -45 0 -45 0 -3 395 c-1 217 0
401 3 408 3 9 19 12 47 10 l43 -3 0 -405z m1840 0 l0 -405 -47 -3 -48 -3 0
411 0 411 48 -3 47 -3 0 -405z m565 -1 l0 -410 -47 3 -48 3 -3 408 -2 407 50
0 50 0 0 -411z m-1785 -19 l0 -385 -65 0 -65 0 -3 388 -2 388 67 -3 68 -3 0
-385z m673 3 l-3 -388 -67 -3 -68 -3 0 391 0 390 70 0 70 0 -2 -387z m-358
178 c6 -11 10 -90 10 -185 l0 -166 -25 -16 c-33 -21 -71 -7 -86 33 -16 42 -8
316 10 336 19 24 78 22 91 -2z m-1132 -553 c-3 -9 -39 -14 -121 -16 -100 -2
-117 0 -117 13 0 13 19 15 121 15 92 0 120 -3 117 -12z m2392 -3 c0 -13 -18
-15 -122 -13 -86 2 -123 7 -126 16 -3 9 26 12 122 12 106 0 126 -2 126 -15z
m-1150 -5 c0 -6 -58 -10 -155 -10 -97 0 -155 4 -155 10 0 6 58 10 155 10 97 0
155 -4 155 -10z m-1470 -465 c0 -25 -1 -25 -85 -25 -84 0 -85 0 -85 25 0 25 1
25 85 25 84 0 85 0 85 -25z m143 -136 c16 -9 17 -44 17 -500 l0 -490 -47 3
-48 3 -3 489 -2 489 25 23 c21 19 25 33 27 86 l1 63 6 -78 c5 -60 10 -81 24
-88z m255 129 l-3 -33 -85 0 -85 0 -3 33 -3 32 91 0 91 0 -3 -32z m182 -37 c0
-58 3 -72 20 -84 18 -13 20 -30 26 -318 4 -167 3 -389 -1 -492 l-7 -188 -77 3
-76 3 -3 485 -2 485 22 17 c18 13 23 28 26 87 l4 71 34 0 34 0 0 -69z m280 34
l0 -35 -85 0 -85 0 0 35 0 35 85 0 85 0 0 -35z m830 -6 l0 -41 -47 6 c-67 9
-169 25 -226 37 -27 5 -66 9 -87 9 -21 0 -60 -4 -87 -9 -57 -12 -159 -28 -225
-37 l-48 -6 0 41 0 41 360 0 360 0 0 -41z m280 16 c0 -25 -1 -25 -85 -25 -84
0 -85 0 -85 25 0 25 1 25 85 25 84 0 85 0 85 -25z m180 -43 c0 -56 3 -69 20
-80 20 -12 20 -23 20 -507 l0 -495 -74 0 -74 0 -7 127 c-4 70 -5 290 -3 489 5
351 6 363 27 390 16 20 21 41 21 85 l0 59 35 0 35 0 0 -68z m280 43 c0 -25 -1
-25 -84 -25 -85 0 -103 7 -92 35 4 12 25 15 91 15 84 0 85 0 85 -25z m398 -7
l-3 -33 -85 0 -85 0 -3 33 -3 32 91 0 91 0 -3 -32z m-257 -128 c19 -11 19 -22
17 -498 l-3 -487 -45 0 -45 0 -3 489 -2 489 25 23 c21 19 25 33 27 81 2 55 2
54 5 -14 3 -60 7 -75 24 -83z m-1154 11 c26 -5 98 -17 158 -26 152 -23 155
-24 155 -40 0 -13 -53 -15 -400 -15 -347 0 -400 2 -400 15 0 16 2 17 155 40
61 9 128 20 150 25 56 11 126 12 182 1z m-357 -596 l0 -405 -65 0 -65 0 0 405
0 405 65 0 65 0 0 -405z m430 360 l0 -45 -154 0 c-152 0 -154 0 -160 23 -3 12
-3 33 1 45 5 22 9 22 159 22 l154 0 0 -45z m240 -360 l0 -405 -65 0 -65 0 0
405 0 405 65 0 65 0 0 -405z m-240 -5 l0 -211 -156 3 -156 3 0 200 c0 110 0
203 1 208 1 4 71 7 156 7 l155 0 0 -210z m0 -360 l0 -40 -154 0 c-114 0 -155
3 -159 13 -3 9 -2 52 2 65 1 1 71 2 156 2 l155 0 0 -40z"/>
</g>
</svg>
