<?xml version="1.0" standalone="no"?>
<!DOCTYPE svg PUBLIC "-//W3C//DTD SVG 20010904//EN"
 "http://www.w3.org/TR/2001/REC-SVG-20010904/DTD/svg10.dtd">
<svg version="1.0" xmlns="http://www.w3.org/2000/svg"
 width="512.000000pt" height="512.000000pt" viewBox="0 0 512.000000 512.000000"
 preserveAspectRatio="xMidYMid meet">

<g transform="translate(0.000000,512.000000) scale(0.100000,-0.100000)"
>
<path d="M2235 5074 c-193 -18 -272 -29 -357 -50 -247 -60 -448 -168 -822
-442 -553 -405 -692 -602 -911 -1298 -117 -371 -139 -486 -139 -724 0 -238 22
-353 139 -724 220 -696 358 -893 910 -1297 455 -334 677 -437 1035 -481 144
-18 798 -18 940 0 352 44 562 139 976 438 585 423 726 608 929 1219 247 745
247 945 0 1690 -203 610 -346 798 -926 1217 -407 294 -607 386 -939 434 -100
15 -729 28 -835 18z m843 -168 c303 -49 515 -158 967 -496 98 -73 227 -180
288 -239 227 -218 317 -380 472 -846 218 -656 218 -874 0 -1530 -155 -466
-245 -628 -472 -846 -200 -193 -625 -495 -848 -605 -245 -120 -377 -144 -830
-151 -748 -12 -931 43 -1486 448 -237 173 -317 240 -435 361 -189 194 -276
361 -421 797 -215 653 -215 869 0 1522 145 436 232 603 421 797 118 121 198
188 435 361 433 316 639 408 991 441 161 15 798 5 918 -14z"/>
<path d="M2130 4781 c-43 -14 -92 -42 -177 -103 -113 -81 -151 -96 -263 -103
-245 -16 -298 -47 -438 -251 -70 -102 -99 -126 -222 -180 -195 -85 -241 -139
-295 -347 -14 -54 -32 -114 -40 -134 -8 -19 -62 -84 -120 -143 -75 -77 -113
-125 -132 -166 -26 -55 -27 -66 -24 -169 11 -283 13 -265 -54 -405 l-60 -125
0 -95 0 -95 60 -125 c67 -140 65 -122 54 -405 -3 -103 -2 -114 24 -169 19 -41
57 -89 132 -166 58 -59 112 -124 120 -143 8 -20 26 -80 40 -134 54 -208 100
-262 295 -347 123 -54 152 -78 222 -180 140 -204 193 -235 438 -251 112 -7
150 -22 263 -103 121 -88 160 -105 248 -110 64 -4 94 1 190 28 144 40 194 40
338 0 96 -27 126 -32 190 -28 89 5 128 23 248 110 113 81 151 96 263 103 245
16 298 47 438 251 70 102 99 126 222 180 196 85 240 138 295 347 14 54 32 114
40 134 8 19 62 84 120 143 75 77 113 125 132 166 26 55 27 66 24 169 -11 283
-13 265 54 405 l60 125 0 95 0 95 -60 125 c-67 140 -65 122 -54 405 3 103 2
114 -24 169 -19 41 -57 89 -132 166 -58 59 -112 124 -120 143 -8 20 -26 80
-40 134 -55 211 -97 260 -303 351 -126 56 -140 67 -213 174 -141 206 -194 237
-439 253 -112 7 -150 22 -263 103 -120 87 -159 105 -248 110 -64 4 -94 -1
-190 -28 -143 -40 -195 -40 -333 -1 -110 31 -209 39 -266 22z m249 -171 c141
-41 222 -40 367 1 152 44 200 40 294 -27 191 -134 225 -147 399 -159 55 -4
101 -10 101 -13 0 -14 -975 -1692 -982 -1690 -7 3 -963 1652 -974 1682 -4 10
18 15 97 21 173 12 211 26 364 136 44 32 91 62 105 68 45 18 123 11 229 -19z
m-442 -1120 c259 -448 475 -825 482 -837 l12 -23 -981 0 c-871 0 -980 2 -980
15 0 9 18 50 39 93 72 144 81 202 60 389 -17 147 -11 161 122 299 121 125 151
177 184 314 27 111 43 151 73 184 15 15 87 57 160 92 151 72 193 108 281 242
48 73 55 80 66 65 7 -10 223 -385 482 -833z m1803 756 c84 -126 124 -159 273
-231 73 -34 144 -76 159 -91 30 -33 46 -73 73 -184 33 -137 63 -189 184 -314
133 -138 139 -152 122 -299 -21 -187 -12 -245 60 -389 21 -43 39 -84 39 -93 0
-13 -109 -15 -981 -15 -539 0 -978 3 -976 8 62 119 983 1700 988 1695 3 -5 30
-44 59 -87z m-1321 -1778 c-20 -39 -951 -1652 -964 -1671 -11 -15 -18 -8 -66
65 -88 134 -130 170 -281 242 -73 35 -145 77 -160 92 -30 33 -46 73 -73 184
-33 137 -63 189 -184 314 -133 138 -139 152 -122 299 21 187 12 245 -60 389
-21 43 -39 84 -39 93 0 13 109 15 980 15 l981 0 -12 -22z m2231 7 c0 -9 -18
-50 -39 -93 -72 -144 -81 -202 -60 -389 17 -147 11 -161 -122 -299 -121 -125
-151 -177 -184 -314 -27 -111 -43 -151 -73 -184 -15 -15 -87 -57 -160 -92
-151 -72 -193 -108 -281 -242 -48 -73 -55 -80 -66 -65 -13 19 -944 1632 -964
1671 l-12 22 981 0 c871 0 980 -2 980 -15z m-1597 -918 c268 -464 487 -846
487 -849 0 -3 -46 -9 -101 -13 -174 -12 -208 -25 -399 -159 -94 -67 -142 -71
-294 -27 -146 42 -226 42 -372 0 -152 -44 -200 -40 -294 27 -191 134 -225 147
-399 159 -55 4 -101 10 -101 13 0 11 974 1692 980 1692 3 0 225 -379 493 -843z"/>
<path d="M2790 4471 c-187 -57 -213 -259 -55 -416 132 -132 293 -134 425 -5
53 52 68 88 52 124 -11 24 -304 268 -351 292 -29 15 -35 16 -71 5z m131 -238
c60 -48 108 -92 106 -97 -2 -6 -22 -17 -44 -25 -38 -14 -43 -13 -89 10 -80 39
-140 149 -102 187 7 7 14 12 16 12 2 0 53 -39 113 -87z"/>
<path d="M2161 4394 c-12 -15 -21 -34 -21 -44 0 -10 9 -29 21 -44 41 -52 129
-21 129 46 0 65 -88 94 -129 42z"/>
<path d="M2185 4075 c-14 -13 -25 -31 -25 -39 0 -30 23 -65 49 -76 74 -30 136
64 78 118 -31 29 -72 28 -102 -3z"/>
<path d="M2386 3948 c-20 -18 -36 -64 -80 -223 -31 -110 -56 -212 -56 -225 0
-33 52 -96 101 -120 45 -24 125 -26 173 -6 52 22 115 91 149 164 41 88 44 191
8 264 -29 61 -98 122 -167 148 -70 26 -97 25 -128 -2z m155 -201 c47 -75 -20
-237 -99 -237 -16 0 -31 2 -34 5 -3 3 13 68 35 145 37 129 41 138 59 129 10
-6 28 -25 39 -42z"/>
<path d="M2872 3787 c-45 -48 -14 -117 52 -117 37 0 76 36 76 70 0 10 -9 29
-21 44 -27 34 -77 36 -107 3z"/>
<path d="M2543 3160 c-45 -18 -55 -72 -22 -114 22 -27 56 -34 89 -16 50 27 49
100 0 125 -33 17 -36 17 -67 5z"/>
<path d="M1413 3940 c-72 -29 -45 -140 34 -140 32 0 73 37 73 66 0 26 -23 62
-47 73 -28 13 -30 13 -60 1z"/>
<path d="M1102 3704 c-59 -29 -101 -77 -139 -161 -37 -78 -39 -197 -6 -259 68
-128 260 -210 314 -134 10 14 40 117 67 230 54 223 54 230 4 284 -63 67 -154
83 -240 40z m122 -133 c7 -11 -53 -263 -66 -276 -6 -7 -22 3 -45 29 -34 36
-35 41 -30 91 6 60 24 99 62 138 27 26 68 36 79 18z"/>
<path d="M1550 3420 c-43 -43 -13 -120 48 -122 64 -2 100 75 57 122 -24 26
-79 26 -105 0z"/>
<path d="M1695 3188 c-56 -29 -75 -47 -96 -93 -42 -90 -11 -204 78 -293 71
-71 131 -97 223 -97 53 0 86 5 112 19 58 28 124 92 148 141 33 68 23 80 -187
222 -198 133 -209 137 -278 101z m180 -215 c63 -42 115 -80 115 -84 0 -15 -58
-39 -93 -39 -71 0 -167 90 -167 157 0 60 7 59 145 -34z"/>
<path d="M826 2999 c-36 -28 -36 -80 0 -108 44 -35 89 -26 109 22 16 39 3 80
-31 96 -35 16 -47 14 -78 -10z"/>
<path d="M1306 2999 c-65 -51 0 -153 79 -123 8 4 23 20 31 36 19 37 5 80 -32
97 -35 16 -48 14 -78 -10z"/>
<path d="M3685 3895 c-14 -13 -25 -36 -25 -50 0 -14 11 -37 25 -50 13 -14 36
-25 50 -25 14 0 37 11 50 25 14 13 25 36 25 50 0 14 -11 37 -25 50 -13 14 -36
25 -50 25 -14 0 -37 -11 -50 -25z"/>
<path d="M3850 3479 c-181 -28 -186 -29 -212 -61 -61 -71 -58 -185 8 -257 73
-82 227 -111 353 -67 71 24 141 94 164 161 19 56 22 157 6 204 -21 61 -47 62
-319 20z m180 -146 c0 -37 -38 -81 -84 -98 -82 -32 -196 -2 -204 53 -4 23 -12
20 148 46 121 20 140 20 140 -1z"/>
<path d="M3293 3275 c-73 -31 -48 -135 32 -135 24 0 39 7 54 26 26 33 26 54 1
86 -25 32 -49 39 -87 23z"/>
<path d="M4183 3012 c-50 -8 -70 -85 -33 -122 43 -43 123 -12 123 48 0 51 -38
82 -90 74z"/>
<path d="M3010 2890 c-45 -45 -13 -123 50 -123 43 0 70 28 70 74 0 28 -6 42
-22 53 -31 22 -74 20 -98 -4z"/>
<path d="M3470 2890 c-43 -43 -12 -123 49 -123 66 0 101 84 52 125 -30 24 -76
23 -101 -2z"/>
<path d="M1520 2310 c-45 -45 -11 -120 53 -120 42 0 70 29 70 70 0 63 -78 95
-123 50z"/>
<path d="M853 2232 c-50 -8 -70 -85 -33 -122 45 -45 123 -13 123 50 0 49 -39
80 -90 72z"/>
<path d="M1983 2232 c-50 -8 -70 -85 -33 -122 45 -45 123 -13 123 50 0 49 -39
80 -90 72z"/>
<path d="M1199 2087 c-66 -25 -142 -95 -178 -164 -16 -32 -13 -81 7 -101 30
-30 385 -215 413 -215 15 0 47 12 73 27 93 54 125 170 75 270 -29 58 -109 135
-173 165 -59 29 -165 38 -217 18z m154 -153 c42 -21 85 -62 104 -97 13 -25 13
-31 -1 -52 l-15 -23 -125 66 c-69 37 -126 70 -126 75 0 15 66 47 98 47 18 0
47 -7 65 -16z"/>
<path d="M1329 1461 c-25 -25 -30 -37 -25 -59 14 -58 86 -82 126 -42 40 40 16
112 -42 126 -22 5 -34 0 -59 -25z"/>
<path d="M3408 2415 c-101 -25 -164 -111 -156 -209 9 -111 99 -235 204 -283
48 -22 66 -25 128 -21 84 6 121 23 193 91 52 49 64 78 47 120 -8 22 -318 295
-346 306 -14 5 -41 4 -70 -4z m155 -260 c87 -77 88 -79 65 -91 -39 -22 -100
-17 -137 11 -73 53 -111 144 -76 179 17 16 19 16 39 -2 11 -10 61 -54 109 -97z"/>
<path d="M2910 2400 c-30 -30 -27 -83 6 -109 15 -12 34 -21 44 -21 10 0 29 9
44 21 52 41 23 129 -44 129 -17 0 -39 -9 -50 -20z"/>
<path d="M3981 2304 c-12 -15 -21 -34 -21 -44 0 -10 9 -29 21 -44 40 -51 129
-20 129 45 0 65 -89 94 -129 43z"/>
<path d="M4116 1918 c-37 -53 -5 -118 57 -118 42 0 70 29 70 70 0 43 -28 70
-74 70 -28 0 -42 -6 -53 -22z"/>
<path d="M3310 1830 c-43 -43 -13 -120 48 -122 64 -2 100 75 57 122 -24 26
-79 26 -105 0z"/>
<path d="M3565 1588 c-74 -88 -73 -201 3 -281 66 -70 210 -110 314 -88 128 27
215 134 225 278 5 58 2 72 -15 93 l-20 25 -240 3 -239 3 -28 -33z m385 -133
c0 -8 -15 -31 -32 -50 -25 -27 -44 -37 -78 -41 -85 -11 -180 32 -180 82 l0 24
145 0 c123 0 145 -2 145 -15z"/>
<path d="M2510 2060 c-26 -26 -26 -81 0 -105 46 -42 120 -10 120 52 0 42 -30
73 -70 73 -17 0 -39 -9 -50 -20z"/>
<path d="M2467 1807 c-222 -103 -226 -107 -227 -199 0 -77 22 -126 74 -166
112 -84 311 -53 419 67 24 27 49 67 55 89 38 126 -22 304 -102 301 -11 0 -110
-42 -219 -92z m183 -127 c0 -30 -7 -48 -31 -75 -65 -73 -229 -84 -229 -15 0
12 36 33 123 73 67 31 125 57 130 57 4 0 7 -18 7 -40z"/>
<path d="M2760 1320 c-45 -45 -11 -120 53 -120 42 0 70 29 70 70 0 63 -78 95
-123 50z"/>
<path d="M2092 1280 c-22 -9 -42 -46 -42 -76 0 -23 47 -64 73 -64 68 0 100 78
52 125 -25 26 -45 30 -83 15z"/>
<path d="M2440 1149 c-125 -57 -163 -170 -99 -297 55 -112 158 -182 274 -190
96 -6 156 20 229 99 57 61 75 104 56 139 -16 30 -379 271 -407 270 -4 0 -28
-10 -53 -21z m170 -222 c58 -38 106 -73 108 -77 6 -17 -49 -42 -90 -42 -72 1
-168 88 -168 151 0 31 18 53 34 44 6 -4 58 -38 116 -76z"/>
<path d="M3096 969 c-34 -27 -36 -77 -3 -107 43 -41 109 -19 123 40 5 22 0 33
-24 58 -36 35 -60 38 -96 9z"/>
<path d="M2105 855 c-14 -13 -25 -36 -25 -50 0 -33 42 -75 75 -75 33 0 75 42
75 75 0 33 -42 75 -75 75 -14 0 -37 -11 -50 -25z"/>
</g>
</svg>
