<?xml version="1.0" standalone="no"?>
<!DOCTYPE svg PUBLIC "-//W3C//DTD SVG 20010904//EN"
 "http://www.w3.org/TR/2001/REC-SVG-20010904/DTD/svg10.dtd">
<svg version="1.0" xmlns="http://www.w3.org/2000/svg"
 width="484.000000pt" height="516.000000pt" viewBox="0 0 484.000000 516.000000"
 preserveAspectRatio="xMidYMid meet">

<g transform="translate(0.000000,516.000000) scale(0.100000,-0.100000)"
fill="#000000" stroke="none">
<path d="M2300 5134 c-93 -33 -160 -111 -179 -208 -6 -28 -17 -168 -26 -311
-9 -142 -18 -269 -21 -282 l-6 -23 -538 0 c-296 0 -545 -3 -554 -6 -27 -10
-18 -67 25 -161 23 -48 52 -113 66 -143 14 -30 45 -97 69 -149 24 -51 44 -95
44 -96 0 -3 51 -118 82 -185 7 -14 21 -35 32 -47 19 -22 25 -23 198 -23 100 0
188 -4 198 -10 21 -11 24 -26 45 -295 8 -99 19 -232 24 -295 10 -108 16 -191
57 -720 19 -248 19 -248 48 -261 31 -14 31 -14 295 171 122 85 355 249 519
363 163 115 300 212 304 216 7 6 34 185 78 516 30 233 40 282 59 298 13 12 57
16 212 19 213 3 218 5 243 62 7 17 21 47 29 66 13 31 79 174 167 365 15 33 37
83 50 110 12 28 31 68 41 89 25 52 25 92 0 106 -13 6 -205 10 -555 10 -500 0
-535 1 -540 18 -3 9 -10 94 -16 187 -21 344 -29 425 -52 469 -59 117 -124 157
-263 163 -65 2 -102 -1 -135 -13z"/>
<path d="M524 4303 c-30 -6 -69 -51 -84 -95 -20 -66 20 -143 87 -169 27 -10
393 -13 393 -2 0 3 -11 29 -24 57 -46 98 -56 129 -56 172 l0 44 -147 -1 c-82
-1 -158 -4 -169 -6z"/>
<path d="M4000 4267 c0 -41 -19 -100 -61 -187 -10 -19 -15 -38 -12 -42 2 -5
83 -8 178 -8 228 0 260 12 293 107 14 43 -2 104 -40 140 l-29 28 -165 3 -164
3 0 -44z"/>
<path d="M2783 2382 c-141 -100 -338 -238 -688 -482 -66 -46 -132 -88 -146
-93 -26 -10 -27 -13 -34 -128 -4 -65 -4 -132 0 -148 l6 -30 487 -3 c268 -2
493 -1 500 1 9 2 12 108 12 487 0 266 -3 484 -7 483 -5 0 -63 -39 -130 -87z"/>
<path d="M1865 1334 c-27 -26 -70 -65 -95 -87 -25 -23 -91 -84 -147 -136
l-103 -95 0 -508 0 -508 125 0 125 0 0 448 c0 389 2 450 16 470 18 27 55 29
77 4 15 -17 17 -64 17 -470 l0 -452 140 0 140 0 0 448 0 449 23 21 c29 27 51
28 77 2 19 -19 20 -33 20 -470 l0 -450 140 0 140 0 0 450 c0 437 1 451 20 470
26 26 52 25 78 -3 22 -23 22 -25 22 -470 l0 -447 140 0 140 0 0 453 c0 427 1
455 18 470 23 21 41 21 70 1 l22 -15 0 -455 0 -454 125 0 125 0 0 509 0 508
-82 74 c-45 41 -109 99 -142 130 -34 31 -86 80 -116 108 l-55 50 -505 1 -505
0 -50 -46z"/>
</g>
</svg>
