<?xml version="1.0" standalone="no"?>
<!DOCTYPE svg PUBLIC "-//W3C//DTD SVG 20010904//EN"
 "http://www.w3.org/TR/2001/REC-SVG-20010904/DTD/svg10.dtd">
<svg version="1.0" xmlns="http://www.w3.org/2000/svg"
 width="256.000000pt" height="256.000000pt" viewBox="0 0 256.000000 256.000000"
 preserveAspectRatio="xMidYMid meet">

<g transform="translate(0.000000,256.000000) scale(0.100000,-0.100000)"
fill="#000000" stroke="none">
<path d="M1199 2417 c-56 -37 -70 -77 -67 -192 l3 -100 59 -3 59 -3 -36 40
c-34 38 -37 45 -37 105 0 84 23 116 84 116 23 0 52 -7 64 -16 20 -13 22 -24
22 -96 0 -80 0 -81 -36 -114 l-35 -34 60 0 61 0 0 113 c0 95 -3 117 -20 145
-37 61 -122 79 -181 39z"/>
<path d="M1230 2267 c0 -49 4 -68 18 -80 17 -16 20 -15 40 6 17 18 22 36 22
80 l0 57 -40 0 -40 0 0 -63z"/>
<path d="M418 2035 l16 -45 59 0 c56 0 58 1 51 23 -21 68 -19 67 -83 67 l-60
0 17 -45z"/>
<path d="M570 2076 c0 -19 48 -129 75 -171 61 -96 158 -167 248 -182 l37 -6 0
147 0 147 -67 32 c-61 27 -80 31 -180 35 -62 2 -113 2 -113 -2z"/>
<path d="M946 2049 c27 -17 81 -62 120 -99 40 -38 97 -80 130 -96 51 -24 71
-28 149 -28 50 -1 102 2 118 7 l27 7 0 120 0 120 -297 0 -297 0 50 -31z"/>
<path d="M1530 1744 l0 -335 23 7 c12 4 41 15 65 25 l42 18 0 311 0 310 -65 0
-65 0 0 -336z"/>
<path d="M1700 1895 c0 -209 -5 -199 83 -169 53 18 128 80 163 135 24 38 57
129 67 187 l7 32 -160 0 -160 0 0 -185z"/>
<path d="M2060 2066 c0 -7 -3 -28 -6 -45 -6 -30 -6 -31 33 -31 37 0 39 2 55
45 l17 45 -49 0 c-36 0 -50 -4 -50 -14z"/>
<path d="M980 1782 l0 -193 35 -15 c19 -7 38 -14 42 -14 4 0 7 75 6 167 l-2
167 -40 40 -41 41 0 -193z"/>
<path d="M1108 1677 c-3 -171 -3 -172 -26 -175 -39 -6 -25 -49 26 -79 l42 -25
0 214 c0 202 -1 214 -20 226 -19 12 -20 8 -22 -161z"/>
<path d="M1200 1571 c0 -146 -4 -232 -10 -236 -6 -4 -45 14 -88 38 l-77 45 -3
51 c-2 38 -8 53 -23 61 -18 10 -19 7 -19 -93 0 -127 16 -160 95 -191 101 -39
195 -85 255 -126 73 -50 197 -110 225 -110 41 0 45 16 45 198 0 160 -1 173
-17 170 -15 -3 -19 -16 -21 -78 -2 -41 -7 -79 -11 -83 -11 -11 -173 -47 -183
-41 -4 3 -8 138 -8 300 0 162 -1 294 -2 294 -13 0 -124 21 -139 25 -18 6 -19
-2 -19 -224z"/>
<path d="M1433 1783 l-33 -4 0 -276 0 -276 46 7 c25 3 50 8 55 12 12 7 12 101
-1 109 -6 4 -10 88 -10 221 0 165 -3 214 -12 212 -7 0 -28 -3 -45 -5z"/>
<path d="M1020 930 l0 -280 160 0 160 0 0 104 c0 80 3 105 14 109 8 3 17 3 20
0 3 -4 6 -53 6 -110 l0 -103 75 0 75 0 0 158 0 157 -57 23 c-32 13 -95 48
-141 78 -45 30 -106 66 -135 80 -50 26 -151 64 -169 64 -4 0 -8 -126 -8 -280z"/>
<path d="M940 590 c-11 -11 -20 -29 -20 -40 0 -20 7 -20 360 -20 353 0 360 0
360 20 0 11 -9 29 -20 40 -19 19 -33 20 -340 20 -307 0 -321 -1 -340 -20z"/>
<path d="M830 440 l0 -40 450 0 450 0 0 40 0 40 -450 0 -450 0 0 -40z"/>
<path d="M830 300 l0 -60 450 0 450 0 0 60 0 60 -450 0 -450 0 0 -60z"/>
<path d="M830 160 l0 -40 450 0 450 0 0 40 0 40 -450 0 -450 0 0 -40z"/>
</g>
</svg>
